<svg width="30" height="30" viewBox="0 0 30 30" fill="none" xmlns="http://www.w3.org/2000/svg">
<path fill-rule="evenodd" clip-rule="evenodd" d="M8.36404 17.636C8.1955 17.4672 8.10083 17.2385 8.10083 17C8.10083 16.7615 8.1955 16.5327 8.36404 16.364L14.364 10.364C14.5328 10.1954 14.7615 10.1008 15 10.1008C15.2385 10.1008 15.4673 10.1954 15.636 10.364L21.636 16.364C21.795 16.5346 21.8816 16.7602 21.8774 16.9934C21.8733 17.2266 21.7789 17.449 21.614 17.6139C21.4491 17.7788 21.2266 17.8733 20.9935 17.8774C20.7603 17.8815 20.5346 17.795 20.364 17.636L15 12.272L9.63604 17.636C9.46729 17.8045 9.23854 17.8992 9.00004 17.8992C8.76154 17.8992 8.53279 17.8045 8.36404 17.636Z" fill="#111111"/>
</svg>
