<svg width="30" height="30" viewBox="0 0 30 30" fill="none" xmlns="http://www.w3.org/2000/svg">
<path fill-rule="evenodd" clip-rule="evenodd" d="M20.6624 11.2125C20.838 11.3883 20.9366 11.6266 20.9366 11.875C20.9366 12.1234 20.838 12.3617 20.6624 12.5375L15.6624 17.5375C15.4867 17.7131 15.2484 17.8117 14.9999 17.8117C14.7515 17.8117 14.5132 17.7131 14.3374 17.5375L9.33745 12.5375C9.24534 12.4517 9.17146 12.3482 9.12022 12.2332C9.06898 12.1182 9.04143 11.994 9.03921 11.8682C9.03699 11.7423 9.06014 11.6172 9.10729 11.5005C9.15445 11.3838 9.22463 11.2777 9.31365 11.1887C9.40267 11.0997 9.50872 11.0295 9.62545 10.9824C9.74219 10.9352 9.86722 10.912 9.9931 10.9143C10.119 10.9165 10.2431 10.944 10.3581 10.9953C10.4731 11.0465 10.5766 11.1204 10.6624 11.2125L14.9999 15.55L19.3374 11.2125C19.5132 11.0369 19.7515 10.9383 19.9999 10.9383C20.2484 10.9383 20.4867 11.0369 20.6624 11.2125Z" fill="#111111"/>
</svg>
